<?xml version="1.0" encoding="UTF-8" standalone="no"?>
<svg width="335px" height="335px" viewBox="0 0 335 335" version="1.1" xmlns="http://www.w3.org/2000/svg" xmlns:xlink="http://www.w3.org/1999/xlink" xmlns:sketch="http://www.bohemiancoding.com/sketch/ns">
    <g id="Page-1" stroke="none" stroke-width="1" fill="none" fill-rule="evenodd" sketch:type="MSPage">
        <path d="M193.867973,176.233357 L193.867973,176.233357 C184.123442,176.233357 176.243403,184.123498 176.243403,193.866907 C176.243403,203.592357 184.142524,211.491478 193.867973,211.491478 L193.867973,211.491478 C203.593423,211.491478 211.492544,203.592357 211.492544,193.866907 C211.493666,184.123498 203.611383,176.233357 193.867973,176.233357 L193.867973,176.233357 Z M140.994262,158.617767 C150.724201,158.617767 158.618833,150.723135 158.618833,140.993196 C158.618833,131.256522 150.724201,123.370871 140.994262,123.370871 C131.266568,123.370871 123.371937,131.256522 123.371937,140.993196 C123.371937,150.723135 131.266568,158.617767 140.994262,158.617767 L140.994262,158.617767 Z M193.867973,123.370871 L193.867973,123.370871 C184.123442,123.370871 176.243403,131.256522 176.243403,140.993196 C176.243403,150.723135 184.124564,158.617767 193.867973,158.617767 L193.867973,158.617767 C203.593423,158.617767 211.492544,150.723135 211.492544,140.993196 C211.493666,131.256522 203.611383,123.370871 193.867973,123.370871 L193.867973,123.370871 Z M211.493666,35.2468959 L123.371937,35.2468959 L123.371937,70.4960368 L211.493666,70.4960368 L211.493666,35.2468959 L211.493666,35.2468959 Z M246.742807,158.617767 C256.463767,158.617767 264.367378,150.723135 264.367378,140.993196 C264.367378,131.256522 256.481727,123.370871 246.742807,123.370871 C236.998275,123.370871 229.118237,131.256522 229.118237,140.993196 C229.118237,150.723135 237.017358,158.617767 246.742807,158.617767 L246.742807,158.617767 Z M246.742807,211.491478 C256.463767,211.491478 264.367378,203.592357 264.367378,193.866907 C264.367378,184.123498 256.481727,176.242337 246.742807,176.242337 C236.998275,176.242337 229.118237,184.123498 229.118237,193.866907 C229.118237,203.592357 237.017358,211.491478 246.742807,211.491478 L246.742807,211.491478 Z M140.994262,211.491478 C150.724201,211.491478 158.618833,203.592357 158.618833,193.866907 C158.618833,184.123498 150.733181,176.233357 140.994262,176.233357 C131.257588,176.233357 123.371937,184.123498 123.371937,193.866907 C123.371937,203.592357 131.266568,211.491478 140.994262,211.491478 L140.994262,211.491478 Z M88.1227958,264.366312 C97.85049,264.366312 105.747366,256.462701 105.747366,246.741741 C105.747366,236.998332 97.85049,229.117171 88.1227958,229.117171 C78.3861214,229.117171 70.4982253,236.998332 70.4982253,246.741741 C70.4982253,256.462701 78.393979,264.366312 88.1227958,264.366312 L88.1227958,264.366312 Z M299.612029,35.2468959 L281.993071,35.2468959 L281.993071,70.4960368 L299.612029,70.4960368 L299.612029,299.60984 L35.2502069,299.60984 L35.2502069,70.4971593 L52.8725323,70.4971593 L52.8725323,35.2468959 L35.2502069,35.2468959 C15.7835933,35.2468959 0.00106599087,51.0238106 0.00106599087,70.4971593 L0.00106599087,299.603105 C0.00106599087,319.080944 15.7835933,334.861226 35.2502069,334.861226 L299.610906,334.861226 C319.080887,334.861226 334.860047,319.079821 334.860047,299.603105 L334.860047,70.4971593 C334.86117,51.0238106 319.080887,35.2468959 299.612029,35.2468959 L299.612029,35.2468959 Z M88.1227958,211.491478 C97.85049,211.491478 105.747366,203.592357 105.747366,193.866907 C105.747366,184.123498 97.85049,176.233357 88.1227958,176.233357 C78.3861214,176.233357 70.4982253,184.123498 70.4982253,193.866907 C70.4982253,203.592357 78.393979,211.491478 88.1227958,211.491478 L88.1227958,211.491478 Z M88.1227958,158.617767 C97.85049,158.617767 105.747366,150.723135 105.747366,140.993196 C105.747366,131.256522 97.85049,123.370871 88.1227958,123.370871 C78.3861214,123.370871 70.4982253,131.256522 70.4982253,140.993196 C70.4982253,150.723135 78.393979,158.617767 88.1227958,158.617767 L88.1227958,158.617767 Z M140.994262,264.366312 C150.724201,264.366312 158.618833,256.462701 158.618833,246.741741 C158.618833,236.998332 150.724201,229.117171 140.994262,229.117171 C131.266568,229.117171 123.371937,236.998332 123.371937,246.741741 C123.371937,256.462701 131.266568,264.366312 140.994262,264.366312 L140.994262,264.366312 Z M88.1227958,70.4971593 C97.85049,70.4971593 105.747366,62.6025281 105.747366,52.8725889 L105.747366,17.625693 C105.747366,7.88565107 97.8594701,0 88.1227958,0 C78.393979,0 70.4982253,7.88565107 70.4982253,17.6245705 L70.4982253,52.8714663 C70.4982253,62.6025281 78.393979,70.4971593 88.1227958,70.4971593 L88.1227958,70.4971593 Z M246.742807,70.4971593 C256.463767,70.4971593 264.367378,62.6025281 264.367378,52.8725889 L264.367378,17.625693 C264.367378,7.88565107 256.463767,0 246.742807,0 C236.998275,0 229.118237,7.88565107 229.118237,17.6245705 L229.118237,52.8714663 C229.118237,62.6025281 237.017358,70.4971593 246.742807,70.4971593 L246.742807,70.4971593 Z" id="Shape" fill="#00BCD4" sketch:type="MSShapeGroup"></path>
    </g>
</svg>